<svg xmlns="http://www.w3.org/2000/svg" aria-hidden="true" style="position:absolute;width:0;height:0;overflow:hidden">
  <defs>
    <symbol id="icon-caret" viewBox="0 0 32 32">
      <path fill="#7a7a7a" d="M12 10c0-1.136 1.315-1.729 2.164-1.044l.112.101 8 8a1.335 1.335 0 0 1 .111 1.76l-.111.125-8 8-.125.111-.103.072-.128.072-.048.023-.089.036-.144.043-.071.013-.08.013-.076.005-.079.003-.079-.003-.077-.007-.08-.012-.069-.013-.144-.043-.089-.036-.176-.093-.12-.087-.108-.097-.111-.125-.072-.103-.072-.128-.023-.048-.036-.089-.043-.144-.013-.071-.013-.08-.005-.076L12 9.999z" style="fill:var(--color1, #7a7a7a)"/>
    </symbol>
    <symbol id="icon-check-all" viewBox="0 0 32 32">
      <path fill="#fff" d="m.546 17.88 7.453 7.453 1.88-1.893L2.439 16zM29.653 7.44 15.546 21.56 9.999 16l-1.907 1.88 7.453 7.453 16-16zM24 9.333 22.12 7.44l-8.467 8.467 1.893 1.88 8.453-8.453z" style="fill:var(--color2, #fff)"/>
    </symbol>
    <symbol id="icon-close" viewBox="0 0 32 32">
      <path fill="#fff" d="M0 0h32v32H0V0z" style="fill:var(--color2, #fff)"/>
      <path fill="#333" d="m8.532 25.333-1.867-1.867 7.467-7.467-7.467-7.467 1.867-1.867 7.467 7.467 7.467-7.467 1.867 1.867-7.467 7.467 7.467 7.467-1.867 1.867-7.467-7.467-7.467 7.467z" style="fill:var(--color3, #333)"/>
    </symbol>
    <symbol id="icon-direction" viewBox="0 0 33 32">
      <path d="M16.308 3c-2.571 0-5.085.762-7.222 2.191S5.282 8.65 4.298 11.025a13.004 13.004 0 0 0 2.818 14.167 13.002 13.002 0 0 0 20.001-1.97A13.003 13.003 0 0 0 29.308 16a13.018 13.018 0 0 0-13-13zm0 24a10.996 10.996 0 0 1-10.162-6.791 10.999 10.999 0 1 1 21.162-4.21 11.015 11.015 0 0 1-11 11zM21.86 9.105l-8 4c-.193.097-.35.254-.447.447l-4 8a1 1 0 0 0 1.341 1.342l8-4c.193-.097.35-.254.448-.448l4-8c.094-.188.127-.401.094-.608a.998.998 0 0 0-1.436-.734zm-4.302 8.145-5.014 2.514 2.514-5.014 5.019-2.509-2.519 5.009z"/>
    </symbol>
    <symbol id="icon-forum" viewBox="0 0 33 32">
      <path fill="#fff" d="M14.808 16a1.495 1.495 0 0 1 .926-1.386 1.504 1.504 0 0 1 1.635.326 1.5 1.5 0 1 1-2.559 1.061zm-4 1.5a1.495 1.495 0 0 0 1.385-.926 1.504 1.504 0 0 0-.326-1.635 1.5 1.5 0 1 0-1.061 2.56zm11 0a1.495 1.495 0 0 0 1.385-.926 1.504 1.504 0 0 0-.326-1.635 1.5 1.5 0 1 0-1.061 2.56zm7.5-9.5v16a2 2 0 0 1-2 2H10.683l-4.086 3.529c-.36.305-.817.472-1.289.471a2.013 2.013 0 0 1-1.691-.926A1.983 1.983 0 0 1 3.308 28V8a2 2 0 0 1 2-2h22a2 2 0 0 1 2 2zm-2 0h-22v20l4.346-3.75c.181-.159.413-.248.654-.25h17V8z" style="fill:var(--color2, #fff)"/>
    </symbol>
    <symbol id="icon-group" viewBox="0 0 33 32">
      <path fill="#fff" d="M30.907 18.8a1.006 1.006 0 0 1-.742.19c-.13-.019-.255-.063-.368-.129s-.212-.155-.291-.261a6.448 6.448 0 0 0-5.2-2.6.998.998 0 0 1-.922-.612.998.998 0 0 1 .369-1.223.998.998 0 0 1 .553-.167 2.998 2.998 0 0 0 2.371-4.837A2.994 2.994 0 0 0 23.7 8.06a3.002 3.002 0 0 0-2.3 2.188 1.006 1.006 0 0 1-.46.612.986.986 0 0 1-.759.107 1.006 1.006 0 0 1-.612-.46.987.987 0 0 1-.107-.758 5.013 5.013 0 0 1 2.947-3.377 5 5 0 0 1 5.27 8.316 8.494 8.494 0 0 1 3.429 2.71 1.006 1.006 0 0 1-.205 1.401zm-6.735 7.7a1.01 1.01 0 0 1 .128.774.997.997 0 0 1-1.25.723 1.011 1.011 0 0 1-.607-.497 7.122 7.122 0 0 0-9.667-2.565 7.122 7.122 0 0 0-2.603 2.565c-.063.119-.149.225-.253.311s-.225.149-.355.186a1.005 1.005 0 0 1-1.25-.723.998.998 0 0 1 .128-.774 9.002 9.002 0 0 1 4.218-3.74 5.998 5.998 0 0 1-2.035-6.69 6.005 6.005 0 0 1 5.682-4.075 5.998 5.998 0 0 1 5.74 7.747 6.002 6.002 0 0 1-2.093 3.018 9.007 9.007 0 0 1 4.218 3.74zM16.307 22a4.004 4.004 0 0 0 3.695-2.469A4 4 0 1 0 16.307 22zm-7-7a.997.997 0 0 0-1-1 2.998 2.998 0 0 1-2.371-4.837 2.994 2.994 0 0 1 2.977-1.101 3.002 3.002 0 0 1 2.3 2.188 1.001 1.001 0 0 0 1.83.259 1 1 0 0 0 .107-.758 5.013 5.013 0 0 0-2.947-3.377 5 5 0 0 0-5.27 8.316 8.497 8.497 0 0 0-3.425 2.71 1 1 0 0 0 .942 1.591c.263-.038.5-.178.659-.39a6.448 6.448 0 0 1 5.2-2.6.997.997 0 0 0 1-1z" style="fill:var(--color2, #fff)"/>
    </symbol>
    <symbol id="icon-guide" viewBox="0 0 33 32">
      <path fill="#7a7a7a" d="M29.917 18.984a5.949 5.949 0 0 0-.294-.681L24.424 6.476a.978.978 0 0 0-.208-.305 4.006 4.006 0 0 0-4.36-.867 4.017 4.017 0 0 0-1.298.867.998.998 0 0 0-.292.705v3.125h-4V6.876a1.01 1.01 0 0 0-.293-.708 4.006 4.006 0 0 0-4.36-.867 4.017 4.017 0 0 0-1.298.867.995.995 0 0 0-.208.305L2.908 18.3a6.003 6.003 0 0 0 4.332 8.612 6.008 6.008 0 0 0 4.888-1.322 6.009 6.009 0 0 0 2.136-4.591v-9h4v9a6 6 0 1 0 11.651-2.018zM9.855 7.469a2.009 2.009 0 0 1 2.412-.125v9.189a5.983 5.983 0 0 0-5.848-1.24l3.438-7.824zM8.267 25a4.004 4.004 0 0 1-3.695-2.469A4 4 0 1 1 8.267 25zm12-17.658a2.008 2.008 0 0 1 2.412.125l3.438 7.822a5.982 5.982 0 0 0-5.848 1.241V7.341zm4 17.658a4.004 4.004 0 0 1-3.695-2.469A4 4 0 1 1 24.267 25z" style="fill:var(--color1, #7a7a7a)"/>
    </symbol>
    <symbol id="icon-journal" viewBox="0 0 33 32">
      <path fill="#fff" d="M26.308 4h-3V3a.997.997 0 0 0-1-1 .997.997 0 0 0-1 1v1h-10V3a.997.997 0 0 0-1-1 .997.997 0 0 0-1 1v1h-3a2 2 0 0 0-2 2v20a2 2 0 0 0 2 2h20a2 2 0 0 0 2-2V6a2 2 0 0 0-2-2zm-17 2v1a.997.997 0 0 0 1 1 .997.997 0 0 0 1-1V6h10v1a.997.997 0 0 0 1 1 .997.997 0 0 0 1-1V6h3v4h-20V6h3zm17 20h-20V12h20v14z" style="fill:var(--color2, #fff)"/>
    </symbol>
    <symbol id="icon-location" viewBox="0 0 33 32">
      <path d="M25.308 28h-6.183a33.274 33.274 0 0 0 2.933-2.969c3.431-3.946 5.25-8.106 5.25-12.031a11 11 0 0 0-22 0c0 3.925 1.814 8.085 5.25 12.031A33.408 33.408 0 0 0 13.491 28H7.308a.997.997 0 0 0-1 1 .997.997 0 0 0 1 1h18a.997.997 0 0 0 1-1 .997.997 0 0 0-1-1zm-18-15a9 9 0 1 1 18 0c0 7.154-6.934 13.125-9 14.75-2.066-1.625-9-7.596-9-14.75zm14 0a4.995 4.995 0 0 0-3.087-4.62 4.993 4.993 0 0 0-6.817 3.643 4.996 4.996 0 0 0 2.127 5.133 4.997 4.997 0 0 0 6.313-.622 5.003 5.003 0 0 0 1.465-3.535zm-8 0a3 3 0 0 1 5.942-.586 2.997 2.997 0 0 1-1.276 3.079 2.996 2.996 0 0 1-3.788-.373 3.004 3.004 0 0 1-.879-2.121z"/>
    </symbol>
    <symbol id="icon-mail" viewBox="0 0 32 32">
      <path fill="#fff" d="M29.333 8c0-1.467-1.2-2.667-2.667-2.667H5.333A2.675 2.675 0 0 0 2.666 8v16c0 1.467 1.2 2.667 2.667 2.667h21.333c1.467 0 2.667-1.2 2.667-2.667V8zm-2.666 0L16 14.653 5.333 8h21.333zm0 16H5.334V10.667l10.667 6.667 10.667-6.667V24z" style="fill:var(--color2, #fff)"/>
    </symbol>
    <symbol id="icon-map-pin" viewBox="0 0 32 32">
      <path fill="#fff" d="M25 13a9 9 0 1 0-18 0c0 3.692 2.954 8.504 9 14.268 6.046-5.764 9-10.576 9-14.268zm-9 17C8.666 23.334 5 17.666 5 13a11 11 0 0 1 22 0c0 4.666-3.666 10.334-11 17z" style="fill:var(--color2, #fff)"/>
      <path fill="#fff" d="M16 16a3.004 3.004 0 0 0 3-3 3.004 3.004 0 0 0-3-3 2.998 2.998 0 0 0-3 3 2.998 2.998 0 0 0 3 3zm0 2a4.997 4.997 0 0 1-5-5 4.997 4.997 0 0 1 5-5 4.997 4.997 0 0 1 5 5 4.997 4.997 0 0 1-5 5z" style="fill:var(--color2, #fff)"/>
    </symbol>
    <symbol id="icon-menu" viewBox="0 0 32 32">
      <path d="M4 24v-2.667h24V24H4zm0-6.667v-2.667h24v2.667H4zm0-6.666V8h24v2.667H4z"/>
    </symbol>
    <symbol id="icon-mood" viewBox="0 0 33 32">
      <path fill="#7a7a7a" d="M29.058 17.632a3.034 3.034 0 0 0-2.326-.596c2.347-2.37 3.535-4.726 3.535-7.036 0-3.309-2.661-6-5.932-6a5.951 5.951 0 0 0-4.568 2.094A5.95 5.95 0 0 0 15.199 4c-3.271 0-5.932 2.691-5.932 6 0 1.375.405 2.711 1.258 4.125a3.992 3.992 0 0 0-1.844 1.05L5.853 18H2.267a2 2 0 0 0-2 2v5a2 2 0 0 0 2 2h13c.082 0 .163-.01.242-.03l8-2a.87.87 0 0 0 .149-.05l4.914-2.093a3.075 3.075 0 0 0 .491-5.195h-.005zM15.199 6a3.898 3.898 0 0 1 3.643 2.375.992.992 0 0 0 .925.62 1.005 1.005 0 0 0 .925-.62A3.893 3.893 0 0 1 24.335 6c2.131 0 3.932 1.831 3.932 4 0 2.439-1.974 5.197-5.708 7.987l-1.386.319a3.504 3.504 0 0 0-1.881-3.957 3.502 3.502 0 0 0-1.525-.35h-4.915c-1.079-1.455-1.585-2.735-1.585-4 0-2.169 1.801-4 3.932-4zM2.267 20h3v5h-3v-5zm25.428 1.026-4.75 2.023L15.141 25H7.266v-5.586l2.829-2.828A1.993 1.993 0 0 1 11.509 16h6.258a1.503 1.503 0 0 1 1.5 1.5 1.503 1.503 0 0 1-1.5 1.5h-3.5a.997.997 0 0 0-1 1 .997.997 0 0 0 1 1h4c.075 0 .15-.009.224-.025l8.414-1.936a1.075 1.075 0 0 1 .788 1.988h.004z" style="fill:var(--color1, #7a7a7a)"/>
    </symbol>
    <symbol id="icon-path" viewBox="0 0 33 32">
      <path d="M26.315 23h-7.008a.997.997 0 0 0-1 1v1.5a4.5 4.5 0 0 0 4.503 4.503 4.5 4.5 0 0 0 4.503-4.503V24a1.002 1.002 0 0 0-.998-1zm-1 2.5a2.5 2.5 0 1 1-5 0V25h5v.5zM13.308 20h-7a.997.997 0 0 0-1 1v1.5a4.5 4.5 0 0 0 9 0V21a.997.997 0 0 0-1-1zm-1 2.5a2.5 2.5 0 1 1-5 0V22h5v.5zM9.808 2C8.353 2 6.942 3.289 5.833 5.625c-1.741 3.672-2.32 9.125.036 12a.991.991 0 0 0 .775.366h6.319a1.01 1.01 0 0 0 .775-.366c2.356-2.875 1.777-8.331.036-12C12.664 3.289 11.254 2 9.808 2zm2.643 14H7.155c-1.425-2.263-.901-6.588.486-9.514C8.45 4.777 9.329 4 9.807 4s1.352.777 2.163 2.486c1.383 2.926 1.906 7.251.481 9.514zm7.202 5h6.319a1.01 1.01 0 0 0 .775-.366c2.356-2.875 1.777-8.331.036-12C25.674 6.289 24.263 5 22.808 5s-2.861 1.289-3.971 3.625c-1.741 3.672-2.32 9.125.036 12a1.005 1.005 0 0 0 .78.375zm1-11.514C21.46 7.777 22.339 7 22.808 7s1.352.777 2.161 2.486c1.387 2.926 1.911 7.25.488 9.514h-5.293c-1.425-2.263-.901-6.588.486-9.514h.003z"/>
    </symbol>
    <symbol id="icon-smile" viewBox="0 0 33 32">
      <path d="M16.267 3c-2.571 0-5.085.762-7.222 2.191S5.241 8.65 4.257 11.025a13.004 13.004 0 0 0 2.818 14.167 13.002 13.002 0 0 0 20.001-1.97A13.003 13.003 0 0 0 29.267 16a13.018 13.018 0 0 0-13-13zm0 24a10.996 10.996 0 0 1-10.162-6.791A10.999 10.999 0 1 1 27.268 16a11.018 11.018 0 0 1-11 11zm-6-13.5a1.495 1.495 0 0 1 .926-1.385 1.504 1.504 0 0 1 1.635.326 1.5 1.5 0 1 1-2.559 1.061zm12 0a1.495 1.495 0 0 1-.926 1.385 1.504 1.504 0 0 1-1.635-.326 1.504 1.504 0 0 1 .227-2.308 1.5 1.5 0 0 1 2.333 1.247zm-.134 6c-1.286 2.224-3.425 3.5-5.866 3.5s-4.579-1.275-5.865-3.5a1.01 1.01 0 0 1-.128-.774.997.997 0 0 1 1.25-.723 1.003 1.003 0 0 1 .607.497c.934 1.614 2.401 2.5 4.135 2.5s3.201-.888 4.134-2.5a1.001 1.001 0 0 1 1.832.241.997.997 0 0 1-.1.759z"/>
    </symbol>
    <symbol id="icon-travel" viewBox="0 0 33 32">
      <path fill="#fff" d="m23.433 14.276 3.664-3.449a4.002 4.002 0 0 0-5.658-5.658c0 .008-.014.014-.021.021L17.99 8.833 7.615 5.058a1.001 1.001 0 0 0-1.048.232l-3 3a.988.988 0 0 0-.287.805 1.01 1.01 0 0 0 .44.733l7.986 5.324-1.853 1.846H7.267a.998.998 0 0 0-.706.292l-3 3a1.006 1.006 0 0 0-.274.907.996.996 0 0 0 .605.728l4.603 1.841 1.845 4.614a1.005 1.005 0 0 0 1.231.57c.159-.051.302-.141.417-.261l2.984-2.985c.093-.092.168-.202.218-.324s.077-.251.078-.383v-2.586l1.845-1.845 5.324 7.986a.994.994 0 0 0 .733.44 1.005 1.005 0 0 0 .805-.287l3-3a1.005 1.005 0 0 0 .232-1.049l-3.774-10.383zm-.009 12.154L18.1 18.445a1.004 1.004 0 0 0-.734-.445h-.099a1.006 1.006 0 0 0-.707.293l-3 3a1 1 0 0 0-.294.706v2.586l-1.634 1.634-1.438-3.595a.992.992 0 0 0-.553-.553l-3.592-1.438 1.632-1.634h2.585a1.01 1.01 0 0 0 .708-.293l3-3a.998.998 0 0 0-.152-1.54L5.837 8.841l1.687-1.686 10.402 3.783a.997.997 0 0 0 1.07-.25l3.867-4.114a2 2 0 0 1 2.826 2.829l-4.109 3.866a1.005 1.005 0 0 0-.25 1.07l3.782 10.402-1.691 1.687z" style="fill:var(--color2, #fff)"/>
    </symbol>
    <symbol id="icon-vision" viewBox="0 0 33 32">
      <path d="M23.148 7H9.267a9 9 0 0 0-8.989 9.424c.211 4.586 3.97 8.349 8.556 8.565 1.981.092 4-.738 6.172-2.538a1.986 1.986 0 0 1 2.53 0c1.321 1.096 3.356 2.548 5.731 2.548 1.192 0 2.372-.237 3.472-.696s2.097-1.133 2.934-1.982a9.003 9.003 0 0 0 2.594-6.441c-.064-4.898-4.155-8.881-9.119-8.881zm5.101 13.918a6.958 6.958 0 0 1-4.983 2.083c-1.735 0-3.375-1.189-4.456-2.084a3.987 3.987 0 0 0-5.082 0c-1.773 1.459-3.345 2.145-4.803 2.076a7.05 7.05 0 0 1-6.653-6.66 7 7 0 0 1 6.994-7.332h13.881c3.875 0 7.069 3.099 7.119 6.906.015.928-.156 1.849-.503 2.709s-.862 1.643-1.515 2.302zM23.267 12a.997.997 0 0 1-1 1h-12a.997.997 0 0 1-1-1 .997.997 0 0 1 1-1h12a.997.997 0 0 1 1 1z"/>
    </symbol>
    <symbol id="icon-vr" viewBox="0 0 33 32">
      <path fill="#7a7a7a" d="m15.703 12.351-3 8a1.002 1.002 0 0 1-1.876 0l-3-8a1.002 1.002 0 0 1 1.875-.703l2.064 5.5 2.064-5.5a.995.995 0 0 1 .523-.56 1.001 1.001 0 0 1 1.352 1.263h-.002zM32.267 16a10.01 10.01 0 0 1-10 10h-12a10.001 10.001 0 0 1 0-20h12a10.01 10.01 0 0 1 10 10zm-2 0a8.007 8.007 0 0 0-8-8h-12a8 8 0 1 0 0 16h12a8.007 8.007 0 0 0 8-8zm-7.395 1.294 1.27 2.206a.999.999 0 0 1-.373 1.365 1.003 1.003 0 0 1-1.365-.373l-1.43-2.5c-.066 0-.134.006-.201.006h-1.506v2a.997.997 0 0 1-1 1 .997.997 0 0 1-1-1v-7.999a.997.997 0 0 1 1-1h2.5a3.502 3.502 0 0 1 3.34 4.537 3.499 3.499 0 0 1-1.235 1.757zM19.267 16h1.5a1.503 1.503 0 0 0 1.5-1.5 1.503 1.503 0 0 0-1.5-1.5h-1.5v3z" style="fill:var(--color1, #7a7a7a)"/>
    </symbol>
  </defs>
</svg>
